<mxfile host="app.diagrams.net" agent="Mozilla/5.0 (X11; Linux x86_64) AppleWebKit/537.36 (KHTML, like Gecko) Chrome/136.0.0.0 Safari/537.36" version="27.1.4">
  <diagram name="Page-1" id="ruGiiQrhKC3RQs7RTHjV">
    <mxGraphModel dx="378" dy="211" grid="1" gridSize="10" guides="1" tooltips="1" connect="1" arrows="1" fold="1" page="1" pageScale="1" pageWidth="827" pageHeight="1169" math="0" shadow="0">
      <root>
        <mxCell id="0" />
        <mxCell id="1" parent="0" />
        <mxCell id="wXXUiqz7rEu1DvLJ8fab-2" value="f" style="ellipse;whiteSpace=wrap;html=1;aspect=fixed;" parent="1" vertex="1">
          <mxGeometry x="171" y="90" width="20" height="20" as="geometry" />
        </mxCell>
        <mxCell id="wXXUiqz7rEu1DvLJ8fab-3" value="g" style="ellipse;whiteSpace=wrap;html=1;aspect=fixed;" parent="1" vertex="1">
          <mxGeometry x="141" y="120" width="20" height="20" as="geometry" />
        </mxCell>
        <mxCell id="wXXUiqz7rEu1DvLJ8fab-4" value="a" style="ellipse;whiteSpace=wrap;html=1;aspect=fixed;" parent="1" vertex="1">
          <mxGeometry x="200" y="120" width="20" height="20" as="geometry" />
        </mxCell>
        <mxCell id="wXXUiqz7rEu1DvLJ8fab-5" value="b" style="ellipse;whiteSpace=wrap;html=1;aspect=fixed;" parent="1" vertex="1">
          <mxGeometry x="110" y="157" width="20" height="20" as="geometry" />
        </mxCell>
        <mxCell id="wXXUiqz7rEu1DvLJ8fab-6" value="c" style="ellipse;whiteSpace=wrap;html=1;aspect=fixed;" parent="1" vertex="1">
          <mxGeometry x="171" y="157" width="20" height="20" as="geometry" />
        </mxCell>
        <mxCell id="aHdExYmRxdrbhVnSgwvR-2" value="" style="endArrow=none;html=1;rounded=0;entryX=0.5;entryY=1;entryDx=0;entryDy=0;exitX=1;exitY=0;exitDx=0;exitDy=0;" edge="1" parent="1" source="wXXUiqz7rEu1DvLJ8fab-3" target="wXXUiqz7rEu1DvLJ8fab-2">
          <mxGeometry width="50" height="50" relative="1" as="geometry">
            <mxPoint x="260" y="190" as="sourcePoint" />
            <mxPoint x="310" y="140" as="targetPoint" />
          </mxGeometry>
        </mxCell>
        <mxCell id="aHdExYmRxdrbhVnSgwvR-4" value="" style="endArrow=none;html=1;rounded=0;exitX=0;exitY=0;exitDx=0;exitDy=0;entryX=0.5;entryY=1;entryDx=0;entryDy=0;" edge="1" parent="1" source="wXXUiqz7rEu1DvLJ8fab-4" target="wXXUiqz7rEu1DvLJ8fab-2">
          <mxGeometry width="50" height="50" relative="1" as="geometry">
            <mxPoint x="280" y="123" as="sourcePoint" />
            <mxPoint x="180" y="110" as="targetPoint" />
          </mxGeometry>
        </mxCell>
        <mxCell id="aHdExYmRxdrbhVnSgwvR-5" value="" style="endArrow=none;html=1;rounded=0;entryX=0.5;entryY=1;entryDx=0;entryDy=0;exitX=1;exitY=0;exitDx=0;exitDy=0;" edge="1" parent="1" source="wXXUiqz7rEu1DvLJ8fab-5" target="wXXUiqz7rEu1DvLJ8fab-3">
          <mxGeometry width="50" height="50" relative="1" as="geometry">
            <mxPoint x="120" y="153" as="sourcePoint" />
            <mxPoint x="140" y="140" as="targetPoint" />
          </mxGeometry>
        </mxCell>
        <mxCell id="aHdExYmRxdrbhVnSgwvR-6" value="" style="endArrow=none;html=1;rounded=0;entryX=0.5;entryY=1;entryDx=0;entryDy=0;exitX=0;exitY=0;exitDx=0;exitDy=0;" edge="1" parent="1" source="wXXUiqz7rEu1DvLJ8fab-6" target="wXXUiqz7rEu1DvLJ8fab-3">
          <mxGeometry width="50" height="50" relative="1" as="geometry">
            <mxPoint x="150" y="163" as="sourcePoint" />
            <mxPoint x="170" y="150" as="targetPoint" />
          </mxGeometry>
        </mxCell>
      </root>
    </mxGraphModel>
  </diagram>
</mxfile>
